<svg xmlns="http://www.w3.org/2000/svg" xmlns:xlink="http://www.w3.org/1999/xlink" width="22.44" height="25.7" viewBox="0 0 22.44 25.7">
  <defs>
    <clipPath id="clip-path">
      <rect id="長方形_49" data-name="長方形 49" width="22.44" height="25.7" fill="#af3702"/>
    </clipPath>
  </defs>
  <g id="グループ_14" data-name="グループ 14" clip-path="url(#clip-path)">
    <path id="パス_6" data-name="パス 6" d="M11.918,0h4.338c.423,3.709,2.562,5.661,6.184,6.172v4.26a10.151,10.151,0,0,1-6.049-1.849c-.027.306-.064.528-.064.749,0,2.71.008,5.421,0,8.131-.023,4.572-3.3,7.912-8.046,8.223-3.795.249-7.6-3.057-8.195-7.123A8.128,8.128,0,0,1,8.368,9.408c.266.013.53.066.836.106v4.319c-.232,0-.462.011-.69,0a3.691,3.691,0,1,0-.576,7.358,3.669,3.669,0,0,0,3.968-3.714c.029-5.42.011-10.84.012-16.261V0" transform="translate(0 0)" fill="#af3702"/>
  </g>
</svg>
