<svg xmlns="http://www.w3.org/2000/svg" width="24" height="22" viewBox="0 0 24 22">
  <path id="パス_28" data-name="パス 28" d="M94.286,89.636A7.939,7.939,0,0,1,92.532,94.8a17.1,17.1,0,0,1-2.56,2.6,44.617,44.617,0,0,1-6.462,4.43c-.468.267-.969.48-1.46.706a.992.992,0,0,1-.371.086c-.317.013-.48-.137-.443-.5.034-.333.1-.664.158-.995a3.585,3.585,0,0,0,.061-1.125.709.709,0,0,0-.426-.546,3.1,3.1,0,0,0-1.009-.281,13.98,13.98,0,0,1-3.078-.8,11.911,11.911,0,0,1-3.3-1.884,8.78,8.78,0,0,1-3.175-4.883A7.051,7.051,0,0,1,70.3,89.5a7.958,7.958,0,0,1,1.9-4.588,11.315,11.315,0,0,1,4.422-3.184,14.936,14.936,0,0,1,12.27.443,10.335,10.335,0,0,1,4.277,3.878A7.365,7.365,0,0,1,94.286,89.636Zm-12.035.038,2.368,3.105a.681.681,0,0,0,.518.3.658.658,0,0,0,.695-.692q0-2.229,0-4.46a.8.8,0,0,0,0-.108.658.658,0,0,0-1.1-.414.692.692,0,0,0-.215.547q0,1.236,0,2.471v.2c-.05-.059-.077-.088-.1-.119L82.882,88.5l-.733-.965a.658.658,0,0,0-.668-.286.592.592,0,0,0-.5.417,1.141,1.141,0,0,0-.044.335q0,2.167,0,4.335a1.04,1.04,0,0,0,.044.32.656.656,0,0,0,.7.428.672.672,0,0,0,.561-.63c0-.543,0-1.087,0-1.631Zm5.683-1.192H88.1c.527,0,1.055,0,1.582,0a.619.619,0,0,0,.62-.619.612.612,0,0,0-.62-.621q-1.211,0-2.422,0a.6.6,0,0,0-.613.591q0,2.322,0,4.645a.616.616,0,0,0,.619.606q1.21,0,2.421,0a.629.629,0,0,0,.615-.6.6.6,0,0,0-.59-.643c-.532-.009-1.065,0-1.6-.006h-.182V90.783h1.719a.629.629,0,0,0,.651-.593.6.6,0,0,0-.62-.65c-.522-.008-1.044,0-1.566,0h-.183ZM75.855,91.835v-.2q0-1.872,0-3.746a.642.642,0,0,0-.687-.645.627.627,0,0,0-.609.667q0,2.254,0,4.507c0,.037,0,.072,0,.109a.632.632,0,0,0,.608.559c.819,0,1.637.006,2.455,0a.63.63,0,0,0,.593-.757.616.616,0,0,0-.65-.487C77,91.832,76.44,91.835,75.855,91.835Zm4.231-1.67q0-1.126,0-2.252a.658.658,0,1,0-1.314.012q-.01,2.236,0,4.474a.8.8,0,0,0,.083.342.66.66,0,0,0,.7.334.673.673,0,0,0,.529-.641C80.088,91.678,80.086,90.921,80.086,90.165Z" transform="translate(-70.286 -80.625)" fill="#af3702" fill-rule="evenodd"/>
</svg>
