<svg xmlns="http://www.w3.org/2000/svg" xmlns:xlink="http://www.w3.org/1999/xlink" width="23.681" height="16.655" viewBox="0 0 23.681 16.655">
  <defs>
    <clipPath id="clip-path">
      <rect id="長方形_48" data-name="長方形 48" width="23.681" height="16.655" fill="#af3702"/>
    </clipPath>
  </defs>
  <g id="グループ_12" data-name="グループ 12" clip-path="url(#clip-path)">
    <path id="パス_5" data-name="パス 5" d="M23.444,3.593a5.128,5.128,0,0,0-.942-2.35,3.385,3.385,0,0,0-2.372-1C16.816,0,11.845,0,11.845,0h-.01S6.865,0,3.551.24a3.387,3.387,0,0,0-2.373,1,5.122,5.122,0,0,0-.941,2.35A35.736,35.736,0,0,0,0,7.425v1.8a35.738,35.738,0,0,0,.237,3.832,5.124,5.124,0,0,0,.941,2.351,4.017,4.017,0,0,0,2.611,1.012c1.9.182,8.052.238,8.052.238s4.976-.007,8.29-.247a3.39,3.39,0,0,0,2.372-1,5.13,5.13,0,0,0,.942-2.351,35.881,35.881,0,0,0,.236-3.832v-1.8a35.879,35.879,0,0,0-.236-3.832M9.395,11.4V4.746l6.4,3.339Z" transform="translate(0 0)" fill="#af3702"/>
  </g>
</svg>
