<svg xmlns="http://www.w3.org/2000/svg" xmlns:xlink="http://www.w3.org/1999/xlink" width="24.413" height="24.412" viewBox="0 0 24.413 24.412">
  <defs>
    <clipPath id="clip-path">
      <rect id="長方形_50" data-name="長方形 50" width="24.413" height="24.412" fill="#af3702"/>
    </clipPath>
  </defs>
  <g id="グループ_16" data-name="グループ 16" clip-path="url(#clip-path)">
    <path id="パス_7" data-name="パス 7" d="M12.206,2.2c3.259,0,3.645.013,4.933.072a6.746,6.746,0,0,1,2.266.42,3.778,3.778,0,0,1,1.4.913,3.777,3.777,0,0,1,.913,1.4,6.757,6.757,0,0,1,.42,2.266c.059,1.287.071,1.673.071,4.933s-.012,3.645-.071,4.932a6.759,6.759,0,0,1-.42,2.266,4.044,4.044,0,0,1-2.317,2.316,6.742,6.742,0,0,1-2.266.421c-1.287.058-1.673.071-4.933.071s-3.645-.013-4.932-.071a6.742,6.742,0,0,1-2.266-.421,3.78,3.78,0,0,1-1.4-.913,3.786,3.786,0,0,1-.913-1.4,6.761,6.761,0,0,1-.42-2.266c-.059-1.287-.071-1.673-.071-4.932s.012-3.646.071-4.933a6.759,6.759,0,0,1,.42-2.266A3.784,3.784,0,0,1,3.6,3.6a3.777,3.777,0,0,1,1.4-.913,6.746,6.746,0,0,1,2.266-.42C8.561,2.212,8.947,2.2,12.206,2.2m0-2.2C8.891,0,8.476.014,7.174.074A8.94,8.94,0,0,0,4.211.642,5.972,5.972,0,0,0,2.049,2.049,5.979,5.979,0,0,0,.641,4.211,8.944,8.944,0,0,0,.074,7.174C.014,8.476,0,8.892,0,12.207s.014,3.73.074,5.032A8.941,8.941,0,0,0,.641,20.2a5.974,5.974,0,0,0,1.408,2.162,5.978,5.978,0,0,0,2.162,1.408,8.956,8.956,0,0,0,2.963.567c1.3.059,1.718.073,5.033.073s3.731-.014,5.033-.073a8.961,8.961,0,0,0,2.963-.567,6.242,6.242,0,0,0,3.57-3.57,8.942,8.942,0,0,0,.567-2.963c.06-1.3.074-1.718.074-5.032s-.014-3.731-.074-5.033a8.945,8.945,0,0,0-.567-2.963,5.983,5.983,0,0,0-1.408-2.162A5.979,5.979,0,0,0,20.2.642,8.944,8.944,0,0,0,17.239.074C15.937.014,15.522,0,12.206,0m0,5.938a6.268,6.268,0,1,0,6.268,6.268,6.268,6.268,0,0,0-6.268-6.268m0,10.337a4.069,4.069,0,1,1,4.068-4.069,4.069,4.069,0,0,1-4.068,4.069m7.98-10.584a1.465,1.465,0,1,0-1.465,1.465,1.465,1.465,0,0,0,1.465-1.465" transform="translate(0 0)" fill="#af3702"/>
  </g>
</svg>
